<svg id="bbec8720-9399-41ec-a16d-806a27531e46" data-name="Layer 1" xmlns="http://www.w3.org/2000/svg" viewBox="0 0 353.44986 289.46924"><defs><style>.b2957838-5935-4fb8-aaef-a071fad8d780{fill:#fff;}</style></defs><title>Jubileumsikon</title><path class="b2957838-5935-4fb8-aaef-a071fad8d780" d="M309.38574,244.10938c-10.77441,2.88525-22.27148,3.813-32.73535,7.38134,17.72266-15.1958,16.71094-38.70849,28.53516-56.606,3.7666-5.06739,6.87988-10.37891,11.2705-15.1875-7.19238,14.42773-4.07324,33.14648-12.33593,47.14746a61.07117,61.07117,0,0,1-12.75977,15.32519c1.64356-.06152,3.082-1.48437,4.52735-2.43457,13.42089-13.39258,30.9541-17.13769,45.47168-28.01855,5.81542-4.63379,11.1416-10.70606,13.69824-17.27344-2.74707,22.21973-24.85254,43.0459-45.67188,49.666Z" transform="translate(-13.2753 -10.53125)"/><path class="b2957838-5935-4fb8-aaef-a071fad8d780" d="M357.73535,154.14551c-6.5664,9.34375-14.50976,18.042-20.57617,27.53808.67676-7.51855,1.56738-16.76367-1.36133-23.88574-5.07519-15.33691-9.53418-30.90918-10.97265-47.74121l.19824-6.43652c3.81933,17.18945,20.70508,29.00586,19.63965,48.28711.38671,4.67285-1.0586,8.6455-1.9336,12.75488l.29.30371.76074-.85254c2.50391-9.458,3.76758-19.40332,7.66114-28.22754,5.5332-12.69824,12.44238-25.51367,9.62695-40.8457,8.416,18.07617,5.86621,42.22754-3.333,59.10547Z" transform="translate(-13.2753 -10.53125)"/><path class="b2957838-5935-4fb8-aaef-a071fad8d780" d="M347.37109,56.75781c11.07227,15.00537,13.499,38.918,5.43457,56.12989a97.89971,97.89971,0,0,0-6.30957,23.13964c-.56347-1.39257-.69238-3.26464-1.19531-4.8164-4.4043-16.84766-20.33789-28.85449-26.89062-44.73877a81.1582,81.1582,0,0,1-4.832-16.2002c7.002,12.9502,24.25782,19.63916,28.96094,33.91065,1.92676,3.60937,1.81836,8.11914,3.01367,12a.48383.48383,0,0,0,.502-.44141c-2.07031-14.70117-1.43848-30.0874.55664-44.606-.11524-7.86425-.88281-15.49267-5.252-21.58007,2.80175,1.63232,4.06347,4.76757,6.01171,7.20263Z" transform="translate(-13.2753 -10.53125)"/><path class="b2957838-5935-4fb8-aaef-a071fad8d780" d="M339.56445,53.87744c2.90821,13.14893-1.33984,25.95459,1.332,39.23l-.0996.11426C333.64355,79.15527,318.457,72.5166,308.00781,61.2583c-6.05566-6.68066-8.68847-14.82275-10.20312-23.44385,5.9873,14.43457,22.14355,17.61524,31.41894,29.77881,3.10352,2.8042,4.11621,6.689,6.11719,9.86914l.32715-.31592c-5.334-11.38671-7.12109-24.20117-10.84277-36.34521a28.11536,28.11536,0,0,0-10.52344-13.75049c12.17578,2.48828,22.72851,15.19971,25.26269,26.82666Z" transform="translate(-13.2753 -10.53125)"/><path class="b2957838-5935-4fb8-aaef-a071fad8d780" d="M307.01172,23.72168c9.16992,8.207,13.31738,18.8335,15.99512,29.84375l1.51464,3.49658a131.55465,131.55465,0,0,1-33.89941-36.02978l-10.37988-10.501c9.125,3.86914,18.96289,6.17871,26.76953,13.19043Z" transform="translate(-13.2753 -10.53125)"/><path class="b2957838-5935-4fb8-aaef-a071fad8d780" d="M96.80566,12.27393c-9.20019,8.06543-15.58105,18.26562-22.40625,27.77734-6.11816,7.57519-13.94433,12.57031-20.87988,19.08447,3.74414-7.76172,3.88086-17.0332,9.19141-24.16308,7.55664-13.1836,21.56933-17.82178,34.09472-22.69873Z" transform="translate(-13.2753 -10.53125)"/><path class="b2957838-5935-4fb8-aaef-a071fad8d780" d="M46.49219,40.35986A31.26544,31.26544,0,0,1,63.02344,29.29932c-12.39551,8.51513-11.58887,23.7749-15.51856,36.46045-1.25293,4.69091-3.42871,9.01269-4.51269,13.82128l.31543.251A42.73982,42.73982,0,0,1,53.51953,64.82422c8.80371-8.12695,21.82715-13.1919,26.1416-25.21387-.19726,16.70606-14.13379,29.83985-27.46875,39.229-5.499,4.82421-10.80176,10.32226-13.83008,16.52392-.29687-4.21484.623-8.44678.32325-12.96191-1.4502-14.5835-2.50391-31.229,7.80664-42.04151Z" transform="translate(-13.2753 -10.53125)"/><path class="b2957838-5935-4fb8-aaef-a071fad8d780" d="M21.41211,90.22754c-.373-14.77832,5.76074-26.8418,14.4043-37.853.251-.12549.42968-.37646.75293-.31592C27.05469,66.51709,34.92578,84.729,34.49219,101.169L33.2373,118.001c.18653.12207.18653.62793.62793.43359.5625-1.876.68457-3.88086,1.06055-5.81055C37.167,99.04688,48.958,89.41309,59.25684,80.03027a26.593,26.593,0,0,0,5.27343-7.82568,70.4896,70.4896,0,0,1-5.76465,19.83057C50.75,107.667,35.94238,120.49316,33.2373,138.38965,31.9248,121.23926,20.24805,108.417,21.41211,90.22754Z" transform="translate(-13.2753 -10.53125)"/><path class="b2957838-5935-4fb8-aaef-a071fad8d780" d="M14.21387,111.24316c1.06543-4.62207,1.87988-9.40527,3.8916-13.64648-3.81152,19.53711,9.3291,33.61426,13.63965,50.54883,1.80371,6.334,2.24511,13.13672,4.82422,19.08008.24023.12988.44921-.1211.59765-.31153-6.418-17.98926,2.84668-34.70605,12.15625-48.791a46.879,46.879,0,0,0,4.69434-12.45313c.98926,8.1416-1.06934,17.51758-2.252,25.9707-2.26367,10.75586-5.64257,20.95606-8.584,31.39258-1.93555,6.52149-1.42676,13.87891-.43262,20.71192L41.81641,183c-6.8252-12.58594-20.33985-22.40234-24.35352-36.15234-3.30273-10.96192-5.49805-23.66016-3.249-35.6045Z" transform="translate(-13.2753 -10.53125)"/><path class="b2957838-5935-4fb8-aaef-a071fad8d780" d="M13.59766,149.40137c1.50293,20.708,23.77148,31.65039,34.09375,48.79394,2.44238,3.50781,4.56152,7.38867,7.82519,10.3252-.50976-2.20606-2.56836-4.0625-3.32422-6.32227A44.74636,44.74636,0,0,1,48.13281,177.749c1-10.57714,5.43653-20.39257,3.74317-31.51757,9.07031,19.55664,6.31543,43.96679,11.38672,65.1582,1.32812,4.63476,4.01074,8.77344,5.76855,13.20312C50.39551,211.90039,24.98438,199.82422,16.7168,176.5625c-3.48438-8.02051-3.873-17.9502-3.11914-27.16113Z" transform="translate(-13.2753 -10.53125)"/><path class="b2957838-5935-4fb8-aaef-a071fad8d780" d="M24.72949,196.95508c10.39063,23.50586,36.41406,25.45312,53.86231,39.7666a42.91962,42.91962,0,0,0,10.20019,6.9541l.18653-.18945c-4.00586-3.62207-8.63965-7.74707-11.44434-12.44141-10.21191-14.19922-6.62012-34.08984-14.27148-49.36133C70.21484,190,76.53711,198.64453,80.73438,208.0791c6.24316,15.40137,8.6289,32.79688,23.07519,44.439-15.63379-5.15235-33.94922-3.71289-47.748-13.33936-15.0664-9.25976-28.51269-24.96582-31.332-42.22363Z" transform="translate(-13.2753 -10.53125)"/><path class="b2957838-5935-4fb8-aaef-a071fad8d780" d="M51.43457,240.80664c16.66016,18.94775,43.88281,12.62549,66.0752,17.58447,3.13476.42774,6.0039,1.6836,9.32617,1.17383-2.64551-1.67383-6.31641-1.49219-9.2041-3.01367-17.39551-6.11133-19.94727-24.94385-29.39063-37.64307,12.06445,8.01172,22.207,18.81739,33.33691,29.2876,8,7.00781,17.62989,10.24219,27.77637,12.30469-2.43847.89062-5.63476.64648-8.25195,1.332-18.22852,4.48242-38.48047,11.80859-57.81152,5.25-12.56739-3.957-25.53321-13.89453-31.85645-26.27588Z" transform="translate(-13.2753 -10.53125)"/><path class="b2957838-5935-4fb8-aaef-a071fad8d780" d="M277.55664,284.97314c-18.77344,7.00586-38.36621-.32031-53.0293-11.43945-5.93652-3.77344-11.16992-9.207-18.84863-8.72656a26.84188,26.84188,0,0,0-7.83789.76758A144.71466,144.71466,0,0,1,237.417,293.02979a58.15423,58.15423,0,0,1-7.167,6.51367c-11.65918-12.5625-24.57129-24.6543-39.02832-31.7168-2.83106.36719-5.52441,2.07031-8.07715,3.44141-11.76953,7.4414-23.40723,17.01367-32.15723,28.73242l-7.51855-6.209a137.01415,137.01415,0,0,1,39.79395-28.33789c-14.26856-4.51953-23.582,7.4336-34.41309,13.51368-12.62109,8.8125-30.77246,12.95117-46.02539,6.87109-8.20313-3.11133-16.15039-7.69336-22.08984-15.14063,12.0039,8.26954,29.88183,9.13672,43.5332,3.76563,18.31836-7.94531,37.35351-18.01758,59.43652-13.20117,3.44629.06054,6.79492,3.49218,10.05078.57031,16.41309-4.26172,34.99512-1.332,49.126,6.16992l14.56445,5.83789c13.53711,5.00586,31.03907,3.6211,42.64258-4.627a51.13419,51.13419,0,0,1-22.53125,15.75976Z" transform="translate(-13.2753 -10.53125)"/><path class="b2957838-5935-4fb8-aaef-a071fad8d780" d="M297.6748,265.57471c-21.07812,7.959-42.2832-1.81055-62.47949-5.07422l-3.88867-.49414v-.123c9.65723-2.19141,19.03125-5.06641,26.71777-12.00586,11.32129-10.88232,21.39551-22.08349,33.96778-30.65869-9.32324,11.9541-10.31153,28.96924-25.71289,36.65479-3.81153,2.49414-8.62207,2.93554-12.55567,4.82421,5.60938.1211,10.74512-1.88867,16.29981-2.45117,20.65234-3.24219,44.27832.084,58.7666-17.50928-5.37891,12.25928-18.84961,22.52491-31.11524,26.83741Z" transform="translate(-13.2753 -10.53125)"/><path class="b2957838-5935-4fb8-aaef-a071fad8d780" d="M335.97266,206.26855c-8.32422,5.44825-16.76172,10.501-24.76075,16.69532v-.76075c12.252-20.3623,6.2627-48.335,13.81153-70.74414l2.81543-7.50683c-1.5752,13.96,4.48828,25.78515,4.0625,39.793a44.82062,44.82062,0,0,1-7.63086,22.72168h.75293c6.00293-7.88379,10.69043-16.26856,17.70605-23.77832,10.88965-10.501,21.96094-21.26856,23.39063-35.84082,3.69824,24.32714-9.95215,45.64843-30.14746,59.42089Z" transform="translate(-13.2753 -10.53125)"/><path class="b2957838-5935-4fb8-aaef-a071fad8d780" d="M185.92578,183.41211H98.21338a54.94654,54.94654,0,0,1,9.15137-24.44043q7.645-11.44776,28.67627-27.02393,12.84668-9.54492,16.43554-14.499,3.58887-4.95264,3.58985-9.40283a10.98675,10.98675,0,0,0-3.55274-8.21875,13.54137,13.54137,0,0,0-18.08789.10791q-3.55371,3.51782-4.77344,12.41748l-29.28564-2.36865q1.72266-12.34425,6.31641-19.272a29.30744,29.30744,0,0,1,12.95605-10.623q8.36059-3.69654,23.148-3.69678,15.43066,0,24.00977,3.51709A29.23656,29.23656,0,0,1,180.291,90.71191a28.53591,28.53591,0,0,1,4.916,16.32911,33.4415,33.4415,0,0,1-5.63476,18.375q-5.63379,8.75829-20.49219,19.23632-8.82716,6.1018-11.80664,8.541-2.97949,2.44189-6.99805,6.38867h45.65039Z" transform="translate(-13.2753 -10.53125)"/><path class="b2957838-5935-4fb8-aaef-a071fad8d780" d="M210.25781,78.18652H279.666v23.32764H232.65234l-2.51269,15.791a50.38745,50.38745,0,0,1,9.6543-3.44532,40.28364,40.28364,0,0,1,9.43847-1.14843q15.78956,0,25.625,9.54638,9.832,9.54712,9.833,24.04541a40.80026,40.80026,0,0,1-5.06055,19.59522,34.31818,34.31818,0,0,1-14.35547,14.35547q-9.29589,4.95262-23.79394,4.95312a70.18747,70.18747,0,0,1-17.83692-1.97461,36.271,36.271,0,0,1-12.63281-5.88574,35.08631,35.08631,0,0,1-8.43359-8.86426,46.24466,46.24466,0,0,1-5.38379-12.3457l29.57226-3.23q1.07814,7.10668,5.0254,10.80224a13.28079,13.28079,0,0,0,9.40234,3.69727,12.73434,12.73434,0,0,0,10.085-4.62988q3.98291-4.63038,3.9834-13.81739,0-9.40209-4.01953-13.78125a13.8237,13.8237,0,0,0-10.69531-4.37841,17.32712,17.32712,0,0,0-8.18165,2.08154,23.78214,23.78214,0,0,0-6.46093,5.45508l-24.90625-3.58887Z" transform="translate(-13.2753 -10.53125)"/></svg>